<svg width="28" height="29" viewBox="0 0 28 29" fill="none" xmlns="http://www.w3.org/2000/svg">
<path d="M28 15C28 16.4971 27.8796 17.9651 27.6497 19.3965C26.8886 24.1351 23.1351 27.8886 18.3965 28.6497C16.965 28.8796 15.497 29 14 29C12.503 29 11.035 28.8796 9.60355 28.6497C4.86494 27.8886 1.11135 24.1351 0.350273 19.3965C0.120366 17.9651 0 16.4971 0 15C0 13.5029 0.120366 12.0349 0.350273 10.6035C1.11135 5.86489 4.86494 2.11135 9.60355 1.35027C11.035 1.12036 12.503 1 14 1C15.497 1 16.965 1.12036 18.3965 1.35027C23.1351 2.11135 26.8886 5.86489 27.6497 10.6035C27.8796 12.0349 28 13.5029 28 15Z" fill="#0B5CFF"></path>
<path d="M28 15C28 16.4971 27.8796 17.9651 27.6497 19.3965C26.8886 24.1351 23.1351 27.8886 18.3965 28.6497C16.965 28.8796 15.497 29 14 29C12.503 29 11.035 28.8796 9.60355 28.6497C4.86494 27.8886 1.11135 24.1351 0.350273 19.3965C0.120366 17.9651 0 16.4971 0 15C0 13.5029 0.120366 12.0349 0.350273 10.6035C1.11135 5.86489 4.86494 2.11135 9.60355 1.35027C11.035 1.12036 12.503 1 14 1C15.497 1 16.965 1.12036 18.3965 1.35027C23.1351 2.11135 26.8886 5.86489 27.6497 10.6035C27.8796 12.0349 28 13.5029 28 15Z" fill="url(#paint0_radial_918_8344)"></path>
<path d="M27.9999 15C27.9999 16.4971 27.8796 17.9651 27.6497 19.3965C26.8885 24.1351 23.135 27.8886 18.3964 28.6497C16.965 28.8796 15.497 29 14 29C12.503 29 11.0349 28.8796 9.60353 28.6497C4.86487 27.8886 1.11133 24.1351 0.350254 19.3965C0.120346 17.965 3.05176e-05 16.4971 3.05176e-05 15C3.05176e-05 13.503 0.120346 12.0349 0.350254 10.6034C1.11138 5.86489 4.86492 2.11125 9.60353 1.35022C11.035 1.12032 12.5029 1 14 1C15.497 1 16.965 1.12032 18.3964 1.35022C23.135 2.11125 26.8886 5.86489 27.6497 10.6034C27.8796 12.0349 27.9999 13.5029 27.9999 15Z" fill="url(#paint1_radial_918_8344)"></path>
<g clip-path="url(#clip0_918_8344)">
<path d="M21 18.0625V19.3749C21 20.818 19.8335 21.9871 18.391 21.998V22C18.3866 22 18.3823 21.9993 18.3779 21.9993C18.3756 21.9993 18.3735 22 18.3713 22V21.999C12.0958 21.9882 7.0103 16.911 7 10.6442C6.99761 9.1906 8.17307 8 9.62872 8H10.943C11.9108 8 12.6955 8.7835 12.6955 9.75001V10.7751C12.6955 11.2392 12.5108 11.6844 12.1821 12.0126L11.2627 12.9308C11.0776 13.1157 11.0119 13.3964 11.1122 13.6378C11.909 15.5556 13.4405 17.0876 15.3589 17.8871C15.601 17.988 15.8827 17.9225 16.0682 17.7373L16.9817 16.8251C17.3103 16.4969 17.756 16.3125 18.2208 16.3125H19.2475C20.2154 16.3125 21 17.096 21 18.0625Z" fill="white"></path>
</g>
<defs>
<radialGradient id="paint0_radial_918_8344" cx="0" cy="0" r="1" gradientUnits="userSpaceOnUse" gradientTransform="translate(14 13.3731) scale(18.8757 15.7759)">
<stop offset="0.82" stop-color="#0B5CFF" stop-opacity="0"></stop>
<stop offset="0.98" stop-color="#003CB3"></stop>
</radialGradient>
<radialGradient id="paint1_radial_918_8344" cx="0" cy="0" r="1" gradientUnits="userSpaceOnUse" gradientTransform="translate(14 16.6211) scale(18.8689 15.7702)">
<stop offset="0.8" stop-color="#0B5CFF" stop-opacity="0"></stop>
<stop offset="1" stop-color="#71A5F1"></stop>
</radialGradient>
<clipPath id="clip0_918_8344">
<rect width="18" height="18" fill="white" transform="translate(5 6)"></rect>
</clipPath>
</defs>
</svg>