<svg width="28" height="29" viewBox="0 0 28 29" fill="none" xmlns="http://www.w3.org/2000/svg">
<path d="M28 15C28 16.4971 27.8796 17.9651 27.6497 19.3965C26.8886 24.1351 23.1351 27.8886 18.3965 28.6497C16.965 28.8796 15.497 29 14 29C12.503 29 11.035 28.8796 9.60355 28.6497C4.86494 27.8886 1.11135 24.1351 0.350273 19.3965C0.120366 17.9651 0 16.4971 0 15C0 13.5029 0.120366 12.0349 0.350273 10.6035C1.11135 5.86489 4.86494 2.11135 9.60355 1.35027C11.035 1.12036 12.503 1 14 1C15.497 1 16.965 1.12036 18.3965 1.35027C23.1351 2.11135 26.8886 5.86489 27.6497 10.6035C27.8796 12.0349 28 13.5029 28 15Z" fill="#0B5CFF"></path>
<path d="M28 15C28 16.4971 27.8796 17.9651 27.6497 19.3965C26.8886 24.1351 23.1351 27.8886 18.3965 28.6497C16.965 28.8796 15.497 29 14 29C12.503 29 11.035 28.8796 9.60355 28.6497C4.86494 27.8886 1.11135 24.1351 0.350273 19.3965C0.120366 17.9651 0 16.4971 0 15C0 13.5029 0.120366 12.0349 0.350273 10.6035C1.11135 5.86489 4.86494 2.11135 9.60355 1.35027C11.035 1.12036 12.503 1 14 1C15.497 1 16.965 1.12036 18.3965 1.35027C23.1351 2.11135 26.8886 5.86489 27.6497 10.6035C27.8796 12.0349 28 13.5029 28 15Z" fill="url(#paint0_radial_918_1247)"></path>
<path d="M27.9999 15C27.9999 16.4971 27.8796 17.9651 27.6497 19.3965C26.8885 24.1351 23.135 27.8886 18.3964 28.6497C16.965 28.8796 15.497 29 14 29C12.503 29 11.0349 28.8796 9.60353 28.6497C4.86487 27.8886 1.11133 24.1351 0.350254 19.3965C0.120346 17.965 3.05176e-05 16.4971 3.05176e-05 15C3.05176e-05 13.503 0.120346 12.0349 0.350254 10.6034C1.11138 5.86489 4.86492 2.11125 9.60353 1.35022C11.035 1.12032 12.5029 1 14 1C15.497 1 16.965 1.12032 18.3964 1.35022C23.135 2.11125 26.8886 5.86489 27.6497 10.6034C27.8796 12.0349 27.9999 13.5029 27.9999 15Z" fill="url(#paint1_radial_918_1247)"></path>
<g clip-path="url(#clip0_918_1247)">
<path d="M17 18.5C17 19.3284 16.3284 20 15.5 20H9C7.34314 20 6 18.6569 6 17V11.5C6 10.6716 6.67157 10 7.5 10H14C15.6569 10 17 11.3431 17 13V18.5ZM20.8 10.8999L18.6 12.5499C18.2223 12.8332 18 13.2778 18 13.7499L18 16.2499C18 16.7221 18.2223 17.1666 18.6 17.4499L20.8 19.0999C21.2944 19.4707 22 19.118 22 18.4999V11.4999C22 10.8819 21.2944 10.5291 20.8 10.8999Z" fill="white"></path>
</g>
<defs>
<radialGradient id="paint0_radial_918_1247" cx="0" cy="0" r="1" gradientUnits="userSpaceOnUse" gradientTransform="translate(14 13.3731) scale(18.8757 15.7759)">
<stop offset="0.82" stop-color="#0B5CFF" stop-opacity="0"></stop>
<stop offset="0.98" stop-color="#003CB3"></stop>
</radialGradient>
<radialGradient id="paint1_radial_918_1247" cx="0" cy="0" r="1" gradientUnits="userSpaceOnUse" gradientTransform="translate(14 16.6211) scale(18.8689 15.7702)">
<stop offset="0.8" stop-color="#0B5CFF" stop-opacity="0"></stop>
<stop offset="1" stop-color="#71A5F1"></stop>
</radialGradient>
<clipPath id="clip0_918_1247">
<rect width="18" height="18" fill="white" transform="translate(5 6)"></rect>
</clipPath>
</defs>
</svg>