<svg width="28" height="29" viewBox="0 0 28 29" fill="none" xmlns="http://www.w3.org/2000/svg">
<path d="M28 15C28 16.4971 27.8796 17.9651 27.6497 19.3965C26.8886 24.1351 23.1351 27.8886 18.3965 28.6497C16.965 28.8796 15.497 29 14 29C12.503 29 11.035 28.8796 9.60355 28.6497C4.86494 27.8886 1.11135 24.1351 0.350273 19.3965C0.120366 17.9651 0 16.4971 0 15C0 13.5029 0.120366 12.0349 0.350273 10.6035C1.11135 5.86489 4.86494 2.11135 9.60355 1.35027C11.035 1.12036 12.503 1 14 1C15.497 1 16.965 1.12036 18.3965 1.35027C23.1351 2.11135 26.8886 5.86489 27.6497 10.6035C27.8796 12.0349 28 13.5029 28 15Z" fill="#0B5CFF"></path>
<path d="M28 15C28 16.4971 27.8796 17.9651 27.6497 19.3965C26.8886 24.1351 23.1351 27.8886 18.3965 28.6497C16.965 28.8796 15.497 29 14 29C12.503 29 11.035 28.8796 9.60355 28.6497C4.86494 27.8886 1.11135 24.1351 0.350273 19.3965C0.120366 17.9651 0 16.4971 0 15C0 13.5029 0.120366 12.0349 0.350273 10.6035C1.11135 5.86489 4.86494 2.11135 9.60355 1.35027C11.035 1.12036 12.503 1 14 1C15.497 1 16.965 1.12036 18.3965 1.35027C23.1351 2.11135 26.8886 5.86489 27.6497 10.6035C27.8796 12.0349 28 13.5029 28 15Z" fill="url(#paint0_radial_918_8817)"></path>
<path d="M27.9999 15C27.9999 16.4971 27.8796 17.9651 27.6497 19.3965C26.8885 24.1351 23.135 27.8886 18.3964 28.6497C16.965 28.8796 15.497 29 14 29C12.503 29 11.0349 28.8796 9.60353 28.6497C4.86487 27.8886 1.11133 24.1351 0.350254 19.3965C0.120346 17.965 3.05176e-05 16.4971 3.05176e-05 15C3.05176e-05 13.503 0.120346 12.0349 0.350254 10.6034C1.11138 5.86489 4.86492 2.11125 9.60353 1.35022C11.035 1.12032 12.5029 1 14 1C15.497 1 16.965 1.12032 18.3964 1.35022C23.135 2.11125 26.8886 5.86489 27.6497 10.6034C27.8796 12.0349 27.9999 13.5029 27.9999 15Z" fill="url(#paint1_radial_918_8817)"></path>
<g clip-path="url(#clip0_918_8817)">
<path d="M17 13.7502C14.5147 13.7502 12.5 15.7649 12.5 18.2501C12.5 20.7353 14.5147 22.75 17 22.75C19.4854 22.75 21.5 20.7353 21.5 18.2501C21.5 15.7649 19.4854 13.7502 17 13.7502ZM18.7675 20.0183C18.6698 20.1159 18.5419 20.1647 18.414 20.1647C18.286 20.1647 18.1581 20.1159 18.0605 20.0183L16.6464 18.6032C16.5526 18.5095 16.4999 18.3825 16.4999 18.2497V15.7498C16.4999 15.4734 16.7235 15.2498 16.9999 15.2498C17.2763 15.2498 17.4999 15.4734 17.4999 15.7498V18.0427L18.7675 19.3112C18.9628 19.5066 18.9628 19.823 18.7675 20.0183ZM16.7499 10.7499C16.4735 10.7499 16.2499 10.5263 16.2499 10.2499V7.24999C16.2499 6.97363 16.4735 6.75 16.7499 6.75C17.0263 6.75 17.2499 6.97363 17.2499 7.24999V10.2499C17.2499 10.5263 17.0263 10.7499 16.7499 10.7499ZM11.2499 10.7499C10.9735 10.7499 10.7499 10.5263 10.7499 10.2499V7.24999C10.7499 6.97363 10.9735 6.75 11.2499 6.75C11.5263 6.75 11.7499 6.97363 11.7499 7.24999V10.2499C11.7499 10.5263 11.5263 10.7499 11.2499 10.7499ZM18.5 8.25034H18.2499V10.2499C18.2499 11.078 17.578 11.7499 16.7499 11.7499C15.9218 11.7499 15.2499 11.078 15.2499 10.2499V8.25034H12.7499V10.2499C12.7499 11.078 12.078 11.7499 11.2499 11.7499C10.4218 11.7499 9.74991 11.078 9.74991 10.2499V8.25034H9.50003C7.84317 8.25034 6.50003 9.59345 6.50003 11.2503V19.2501C6.50003 20.9069 7.84317 22.25 9.50003 22.25H12.3166C12.5927 22.25 12.8166 22.0261 12.8166 21.75C12.8166 21.4738 12.5927 21.25 12.3166 21.25L9.50003 21.2499C8.39554 21.2499 7.50003 20.3544 7.50003 19.25V14.7501C7.50003 13.6456 8.39554 12.7501 9.50003 12.7501H18.5C19.2389 12.7501 19.8776 13.155 20.2231 13.7513C20.2643 13.8226 20.3224 13.8822 20.3871 13.933C20.3918 13.9366 20.3964 13.9402 20.401 13.9438C20.8459 14.295 21.5 13.9713 21.5 13.4047V11.2503C21.5 9.59346 20.1569 8.25034 18.5 8.25034Z" fill="white"></path>
</g>
<defs>
<radialGradient id="paint0_radial_918_8817" cx="0" cy="0" r="1" gradientUnits="userSpaceOnUse" gradientTransform="translate(14 13.3731) scale(18.8757 15.7759)">
<stop offset="0.82" stop-color="#0B5CFF" stop-opacity="0"></stop>
<stop offset="0.98" stop-color="#003CB3"></stop>
</radialGradient>
<radialGradient id="paint1_radial_918_8817" cx="0" cy="0" r="1" gradientUnits="userSpaceOnUse" gradientTransform="translate(14 16.6211) scale(18.8689 15.7702)">
<stop offset="0.8" stop-color="#0B5CFF" stop-opacity="0"></stop>
<stop offset="1" stop-color="#71A5F1"></stop>
</radialGradient>
<clipPath id="clip0_918_8817">
<rect width="18" height="18" fill="white" transform="translate(5 6)"></rect>
</clipPath>
</defs>
</svg>