<svg width="14" height="15" viewBox="0 0 14 15" fill="none" xmlns="http://www.w3.org/2000/svg">
<g clip-path="url(#clip0_2781_7760)">
<path d="M11.6847 5.00274C11.5134 4.83211 11.237 4.83211 11.0652 5.00274C10.8948 5.17422 10.8948 5.45076 11.0652 5.62225L12.5066 7.0625H8.69488C8.53659 6.44737 8.05273 5.96352 7.4375 5.80512V4C7.4375 2.79164 6.45846 1.8125 5.25 1.8125H3.44488C3.2507 1.05734 2.56561 0.5 1.75 0.5C0.783571 0.499991 0 1.28313 0 2.24999C0 3.21685 0.783571 3.99999 1.75 3.99999C2.56561 3.99999 3.2507 3.4426 3.44488 2.68749H5.25C5.97461 2.68749 6.5625 3.27549 6.5625 3.99999V5.80511C5.94748 5.96351 5.46362 6.44737 5.30512 7.06249H3.44488C3.2507 6.30733 2.56561 5.74999 1.75 5.74999C0.783571 5.74999 0 6.53313 0 7.49999C0 8.46685 0.783571 9.24999 1.75 9.24999C2.56561 9.24999 3.2507 8.6926 3.44488 7.93749H5.30512C5.46362 8.55262 5.94748 9.03647 6.5625 9.19488V11C6.5625 11.7245 5.97461 12.3125 5.25 12.3125H3.44488C3.2507 11.5573 2.56561 11 1.75 11C0.783571 11 0 11.7831 0 12.75C0 13.7168 0.783571 14.5 1.75 14.5C2.56561 14.5 3.2507 13.9426 3.44488 13.1875H5.25C6.45846 13.1875 7.4375 12.2083 7.4375 11V9.19488C8.05273 9.03647 8.53659 8.55262 8.69488 7.93749H12.5066L11.0652 9.37774C10.8948 9.54922 10.8948 9.82576 11.0652 9.99725C11.237 10.1679 11.5134 10.1679 11.6847 9.99725L13.8722 7.80975C14.0429 7.63827 14.0429 7.36173 13.8722 7.19024L11.6847 5.00274Z" fill="#0B5CFF"></path>
</g>
<defs>
<clipPath id="clip0_2781_7760">
<rect width="14" height="14" fill="white" transform="translate(0 0.5)"></rect>
</clipPath>
</defs>
</svg>