<svg width="14" height="15" viewBox="0 0 14 15" fill="none" xmlns="http://www.w3.org/2000/svg">
<path fill-rule="evenodd" clip-rule="evenodd" d="M12.0916 8.85983C12.3161 9.36173 12.9039 9.59287 13.4058 9.36833C13.9077 9.1438 14.1388 8.56265 13.9143 8.06735L11.8803 3.41153C11.6623 2.90302 11.0746 2.67848 10.5727 2.89642C10.0642 3.11435 9.83963 3.7021 10.0576 4.20401L12.0916 8.85983ZM8.67733 12.5647C8.89526 13.0666 9.48302 13.2977 9.98492 13.0798C10.4802 12.8619 10.7114 12.2741 10.5 11.7722L6.86123 3.40492C6.6433 2.90302 6.05554 2.67188 5.55364 2.88981C5.05173 3.10774 4.82059 3.6955 5.03852 4.1974L8.67733 12.5647ZM4.95928 13.0798C5.20362 12.9741 5.38854 12.776 5.4876 12.5316C5.58666 12.2873 5.58005 12.0099 5.47439 11.7722L3.42054 7.03712C3.20261 6.53522 2.61485 6.30408 2.11295 6.52201C1.61105 6.73994 1.37991 7.3277 1.59784 7.8296L3.65168 12.5647C3.86961 13.0666 4.45737 13.2977 4.95928 13.0798ZM1.10254 3.16718C0.521389 3.16718 0.0458984 3.64267 0.0458984 4.22382C0.0458984 4.81158 0.521389 5.28046 1.10254 5.28046C1.68369 5.28046 2.15918 4.80497 2.15918 4.22382C2.15918 3.64267 1.68369 3.16718 1.10254 3.16718Z" fill="#0B5CFF"></path>
</svg>