<svg width="14" height="15" viewBox="0 0 14 15" fill="none" xmlns="http://www.w3.org/2000/svg">
<path d="M7.875 10.9999V12.7499H10.9375C11.1793 12.7499 11.375 12.9459 11.375 13.1874C11.375 13.4289 11.1793 13.6249 10.9375 13.6249H3.0625C2.82111 13.6249 2.625 13.4289 2.625 13.1874C2.625 12.9459 2.82111 12.7499 3.0625 12.7499H6.125V10.9999H1.75C0.783571 10.9999 0 10.2167 0 9.24988V3.12488C0 2.15834 0.783571 1.37488 1.75 1.37488H12.25C13.2166 1.37488 14 2.15834 14 3.12488V9.24988C14 10.2167 13.2166 10.9999 12.25 10.9999H7.875Z" fill="#0B5CFF"></path>
</svg>