<svg width="28" height="29" viewBox="0 0 28 29" fill="none" xmlns="http://www.w3.org/2000/svg">
<path d="M28 15C28 16.4971 27.8796 17.9651 27.6497 19.3965C26.8886 24.1351 23.1351 27.8886 18.3965 28.6497C16.965 28.8796 15.497 29 14 29C12.503 29 11.035 28.8796 9.60355 28.6497C4.86494 27.8886 1.11135 24.1351 0.350273 19.3965C0.120366 17.9651 0 16.4971 0 15C0 13.5029 0.120366 12.0349 0.350273 10.6035C1.11135 5.86489 4.86494 2.11135 9.60355 1.35027C11.035 1.12036 12.503 1 14 1C15.497 1 16.965 1.12036 18.3965 1.35027C23.1351 2.11135 26.8886 5.86489 27.6497 10.6035C27.8796 12.0349 28 13.5029 28 15Z" fill="#0B5CFF"></path>
<path d="M28 15C28 16.4971 27.8796 17.9651 27.6497 19.3965C26.8886 24.1351 23.1351 27.8886 18.3965 28.6497C16.965 28.8796 15.497 29 14 29C12.503 29 11.035 28.8796 9.60355 28.6497C4.86494 27.8886 1.11135 24.1351 0.350273 19.3965C0.120366 17.9651 0 16.4971 0 15C0 13.5029 0.120366 12.0349 0.350273 10.6035C1.11135 5.86489 4.86494 2.11135 9.60355 1.35027C11.035 1.12036 12.503 1 14 1C15.497 1 16.965 1.12036 18.3965 1.35027C23.1351 2.11135 26.8886 5.86489 27.6497 10.6035C27.8796 12.0349 28 13.5029 28 15Z" fill="url(#paint0_radial_918_54)"></path>
<path d="M27.9999 15C27.9999 16.4971 27.8796 17.9651 27.6497 19.3965C26.8885 24.1351 23.135 27.8886 18.3964 28.6497C16.965 28.8796 15.497 29 14 29C12.503 29 11.0349 28.8796 9.60353 28.6497C4.86487 27.8886 1.11133 24.1351 0.350254 19.3965C0.120346 17.965 3.05176e-05 16.4971 3.05176e-05 15C3.05176e-05 13.503 0.120346 12.0349 0.350254 10.6034C1.11138 5.86489 4.86492 2.11125 9.60353 1.35022C11.035 1.12032 12.5029 1 14 1C15.497 1 16.965 1.12032 18.3964 1.35022C23.135 2.11125 26.8886 5.86489 27.6497 10.6034C27.8796 12.0349 27.9999 13.5029 27.9999 15Z" fill="url(#paint1_radial_918_54)"></path>
<g clip-path="url(#clip0_918_54)">
<path d="M21.5 11.4998V11.8927L15.5449 16.5739C14.6357 17.2897 13.3643 17.2887 12.4551 16.5739L6.5 11.8927V11.4998C6.5 9.84294 7.84314 8.49978 9.5 8.49978H9.75V10.4996C9.75 11.3282 10.4214 11.9996 11.25 11.9996C12.0786 11.9996 12.75 11.3282 12.75 10.4996V8.49978H15.25V10.4996C15.25 11.3282 15.9214 11.9996 16.75 11.9996C17.5786 11.9996 18.25 11.3282 18.25 10.4996V8.49978H18.5C20.1569 8.49978 21.5 9.84294 21.5 11.4998ZM14 18.111C13.2368 18.111 12.4736 17.861 11.8369 17.36L6.5 13.1648V18.5C6.5 20.1568 7.84314 21.5 9.5 21.5H18.5C20.1569 21.5 21.5 20.1568 21.5 18.5V13.1648L16.1631 17.36C15.5264 17.8605 14.7632 18.111 14 18.111ZM16.75 10.9996C17.0264 10.9996 17.25 10.7759 17.25 10.4996V7.50001C17.25 7.22364 17.0264 7 16.75 7C16.4736 7 16.25 7.22364 16.25 7.50001V10.4996C16.25 10.7759 16.4736 10.9996 16.75 10.9996ZM11.25 10.9996C11.5264 10.9996 11.75 10.7759 11.75 10.4996V7.50001C11.75 7.22364 11.5264 7 11.25 7C10.9736 7 10.75 7.22364 10.75 7.50001V10.4996C10.75 10.7759 10.9736 10.9996 11.25 10.9996Z" fill="white"></path>
</g>
<defs>
<radialGradient id="paint0_radial_918_54" cx="0" cy="0" r="1" gradientUnits="userSpaceOnUse" gradientTransform="translate(14 13.3731) scale(18.8757 15.7759)">
<stop offset="0.82" stop-color="#0B5CFF" stop-opacity="0"></stop>
<stop offset="0.98" stop-color="#003CB3"></stop>
</radialGradient>
<radialGradient id="paint1_radial_918_54" cx="0" cy="0" r="1" gradientUnits="userSpaceOnUse" gradientTransform="translate(14 16.6211) scale(18.8689 15.7702)">
<stop offset="0.8" stop-color="#0B5CFF" stop-opacity="0"></stop>
<stop offset="1" stop-color="#71A5F1"></stop>
</radialGradient>
<clipPath id="clip0_918_54">
<rect width="18" height="18" fill="white" transform="translate(5 6)"></rect>
</clipPath>
</defs>
</svg>